<svg id="uuid-032d2ee0-65ee-4e44-845d-a5ffcf906e57" data-name="Logotype" xmlns="http://www.w3.org/2000/svg" viewBox="0 0 1920 320">
  <path d="m100.756,208.119c2.405,19.549,19.248,32.181,46.015,32.181,22.857,0,38.195-9.624,38.195-29.474,0-26.165-25.864-28.271-54.436-34.587-20.752-4.511-47.519-12.029-47.519-45.413,0-30.677,22.556-46.917,60.149-46.917,34.286,0,57.443,13.534,64.061,40.902l-20.752,5.714c-4.512-16.842-16.842-27.669-41.805-27.669-24.06,0-37.594,9.624-37.594,27.067,0,20.451,18.947,24.963,45.413,30.075,21.354,4.211,56.24,11.429,56.24,50.526,0,33.082-25.263,48.722-61.954,48.722-26.767,0-60.752-8.12-67.368-45.413l21.354-5.715Z" fill="#f7f7f7" stroke-width="0"/>
  <path d="m386.772,87.218h118.194v21.954h-94.736v48.722h73.083v21.354h-73.083v54.437h96.24v21.954h-119.698V87.218Z" fill="#f7f7f7" stroke-width="0"/>
  <path d="m689.027,87.218h23.458v146.466h87.819v21.954h-111.277V87.218Z" fill="#f7f7f7" stroke-width="0"/>
  <path d="m1036.693,87.218c54.436,0,93.232,32.18,93.232,84.812s-38.797,83.608-91.729,83.608h-59.548V87.218h58.045Zm.901,146.466c40,0,68.571-20.451,68.571-61.654,0-40.902-27.97-62.857-69.773-62.857h-34.286v124.512h35.488Z" fill="#f7f7f7" stroke-width="0"/>
  <path d="m1387.066,83.909c49.924,0,88.42,36.691,88.42,87.819,0,50.526-38.496,87.519-88.42,87.519s-88.421-36.992-88.421-87.519c0-51.128,38.496-87.819,88.421-87.819Zm0,153.684c36.691,0,64.661-27.067,64.661-65.864,0-39.398-27.97-66.165-64.661-66.165s-64.662,26.767-64.662,66.165c0,38.797,27.97,65.864,64.662,65.864Z" fill="#f7f7f7" stroke-width="0"/>
  <path d="m1774.434,255.638v-62.556l-95.939-78.496h-.902s.602,21.354.602,43.909v97.143h-23.458V87.218h24.962l94.135,76.992h.602c.301-.301,0-16.542,0-32.481v-44.511h23.459v168.42h-23.459Z" fill="#f7f7f7" stroke-width="0"/>
</svg>